<svg width="19" height="19" viewBox="0 0 19 19" fill="none" xmlns="http://www.w3.org/2000/svg">
  <g clip-path="url(#clip0_726_296)">
    <path fill-rule="evenodd" clip-rule="evenodd" d="M11.2773 2.54004H7.87112C6.51663 2.54003 5.44344 2.54002 4.5898 2.63129C3.71446 2.72487 2.98792 2.92098 2.36427 3.369C2.00265 3.6288 1.68386 3.94158 1.41909 4.29641C0.96247 4.9083 0.762596 5.62117 0.667217 6.48004C0.574202 7.31761 0.57421 8.37058 0.574219 9.69957V9.78045C0.57421 11.1095 0.574202 12.1625 0.667217 13C0.762596 13.8589 0.96247 14.5718 1.41909 15.1837C1.68386 15.5385 2.00265 15.8513 2.36427 16.111C2.98792 16.5591 3.71446 16.7552 4.5898 16.8488C5.44344 16.94 6.51661 16.94 7.8711 16.94H11.2773C12.6318 16.94 13.7049 16.94 14.5586 16.8488C15.4339 16.7552 16.1605 16.5591 16.7841 16.111C17.1458 15.8513 17.4646 15.5385 17.7294 15.1837C18.186 14.5718 18.3858 13.8589 18.4812 13C18.5742 12.1625 18.5742 11.1096 18.5742 9.78054V9.69958C18.5742 8.37063 18.5742 7.3176 18.4812 6.48004C18.3858 5.62117 18.186 4.9083 17.7294 4.29641C17.4646 3.94158 17.1458 3.6288 16.7841 3.369C16.1605 2.92098 15.4339 2.72487 14.5586 2.63129C13.7049 2.54002 12.6318 2.54003 11.2773 2.54004ZM3.18029 4.46252C3.52836 4.21246 3.9824 4.05955 4.73943 3.97861C5.50952 3.89628 6.50741 3.89533 7.91235 3.89533H11.2361C12.6411 3.89533 13.6389 3.89628 14.409 3.97861C15.166 4.05955 15.6201 4.21246 15.9682 4.46252C16.2156 4.64027 16.4337 4.85428 16.6148 5.09706C16.7782 5.31586 16.9008 5.57735 16.9895 5.93236L12.0885 8.96943C11.3594 9.42131 10.8568 9.73173 10.4383 9.93453C10.0344 10.1303 9.76304 10.1977 9.50697 10.1977C9.25089 10.1977 8.97953 10.1303 8.57562 9.93453C8.15713 9.73173 7.65457 9.42131 6.92537 8.96943L2.14153 6.00494C2.23142 5.61256 2.35937 5.33052 2.53358 5.09706C2.71474 4.85428 2.93286 4.64027 3.18029 4.46252ZM1.97934 7.5074C1.95592 8.11475 1.95551 8.84279 1.95551 9.74004C1.95551 11.1186 1.95647 12.0977 2.04038 12.8532C2.12288 13.596 2.27873 14.0415 2.53358 14.383C2.71474 14.6258 2.93286 14.8398 3.18029 15.0175C3.52836 15.2676 3.9824 15.4206 4.73943 15.5015C5.50952 15.5838 6.50741 15.5847 7.91235 15.5847H11.2361C12.6411 15.5847 13.6389 15.5838 14.409 15.5015C15.166 15.4206 15.6201 15.2676 15.9682 15.0175C16.2156 14.8398 16.4337 14.6258 16.6148 14.383C16.8697 14.0415 17.0256 13.596 17.108 12.8532C17.192 12.0977 17.1929 11.1186 17.1929 9.74004C17.1929 8.8024 17.1924 8.04953 17.1658 7.4261L12.7951 10.1346C12.1045 10.5625 11.5411 10.9117 11.05 11.1497C10.537 11.3983 10.0502 11.553 9.50697 11.553C8.9637 11.553 8.47687 11.3983 7.96392 11.1497C7.4729 10.9117 6.90946 10.5625 6.21884 10.1346L1.97934 7.5074Z" fill="#201F29"/>
  </g>
  <defs>
    <clipPath id="clip0_726_296">
      <rect width="18" height="18" fill="white" transform="translate(0.574219 0.740234)"/>
    </clipPath>
  </defs>
</svg>