<svg width="19" height="18" viewBox="0 0 19 18" fill="none" xmlns="http://www.w3.org/2000/svg">
  <path d="M5.19727 0C2.43627 0 0.197266 2.239 0.197266 5V13C0.197266 15.761 2.43627 18 5.19727 18H13.1973C15.9583 18 18.1973 15.761 18.1973 13V5C18.1973 2.239 15.9583 0 13.1973 0H5.19727ZM15.1973 2C15.7493 2 16.1973 2.448 16.1973 3C16.1973 3.552 15.7493 4 15.1973 4C14.6453 4 14.1973 3.552 14.1973 3C14.1973 2.448 14.6453 2 15.1973 2ZM9.19727 4C11.9583 4 14.1973 6.239 14.1973 9C14.1973 11.761 11.9583 14 9.19727 14C6.43627 14 4.19727 11.761 4.19727 9C4.19727 6.239 6.43627 4 9.19727 4ZM9.19727 6C8.40162 6 7.63855 6.31607 7.07594 6.87868C6.51334 7.44129 6.19727 8.20435 6.19727 9C6.19727 9.79565 6.51334 10.5587 7.07594 11.1213C7.63855 11.6839 8.40162 12 9.19727 12C9.99292 12 10.756 11.6839 11.3186 11.1213C11.8812 10.5587 12.1973 9.79565 12.1973 9C12.1973 8.20435 11.8812 7.44129 11.3186 6.87868C10.756 6.31607 9.99292 6 9.19727 6Z" fill="white"/>
</svg>