<svg width="19" height="18" viewBox="0 0 19 18" fill="none" xmlns="http://www.w3.org/2000/svg">
  <path d="M16.1973 0H2.19727C1.09227 0 0.197266 0.895 0.197266 2V16C0.197266 17.105 1.09227 18 2.19727 18H16.1973C17.3023 18 18.1973 17.105 18.1973 16V2C18.1973 0.895 17.3023 0 16.1973 0ZM4.93527 14C4.23827 14 3.67327 13.435 3.67327 12.738V8.261C3.67427 7.565 4.23927 7 4.93527 7C5.63227 7 6.19727 7.565 6.19727 8.262V12.739C6.19727 13.435 5.63227 14 4.93527 14ZM4.89127 5.717C4.12027 5.717 3.60527 5.203 3.60527 4.517C3.60527 3.831 4.11927 3.317 4.97627 3.317C5.74727 3.317 6.26227 3.831 6.26227 4.517C6.26227 5.203 5.74827 5.717 4.89127 5.717ZM13.9763 14C13.3023 14 12.7553 13.453 12.7553 12.779V10.174C12.7553 9.116 12.1043 9 11.8603 9C11.6163 9 10.8023 9.035 10.8023 10.174V12.779C10.8023 13.453 10.2553 14 9.58127 14H9.50027C8.82627 14 8.27927 13.453 8.27927 12.779V8.262C8.27927 7.565 8.84426 7 9.54127 7C10.2383 7 10.8033 7.565 10.8033 8.262C10.8033 8.262 11.0853 7 13.0013 7C14.2203 7 15.1973 7.977 15.1973 10.174V12.779C15.1973 13.453 14.6503 14 13.9763 14Z" fill="white"/>
</svg>